<?xml version="1.0" encoding="UTF-8"?>
<svg id="Layer_2" data-name="Layer 2" xmlns="http://www.w3.org/2000/svg" xmlns:xlink="http://www.w3.org/1999/xlink" viewBox="0 0 511.2 281.06">
  <defs>
    <style>
      .cls-1 {
        fill: url(#linear-gradient-2);
      }

      .cls-2 {
        clip-path: url(#clippath-45);
      }

      .cls-3 {
        fill: url(#linear-gradient-51);
      }

      .cls-4 {
        clip-path: url(#clippath-20);
      }

      .cls-5 {
        clip-path: url(#clippath-11);
      }

      .cls-6 {
        clip-path: url(#clippath-16);
      }

      .cls-7 {
        clip-path: url(#clippath-59);
      }

      .cls-8 {
        fill: url(#linear-gradient-17);
      }

      .cls-9 {
        clip-path: url(#clippath-33);
      }

      .cls-10 {
        clip-path: url(#clippath-47);
      }

      .cls-11 {
        fill: url(#linear-gradient-43);
      }

      .cls-12 {
        clip-path: url(#clippath-41);
      }

      .cls-13 {
        clip-path: url(#clippath-32);
      }

      .cls-14 {
        fill: url(#linear-gradient-15);
      }

      .cls-15 {
        fill: url(#linear-gradient-58);
      }

      .cls-16 {
        fill: url(#linear-gradient-18);
      }

      .cls-17 {
        fill: url(#linear-gradient-56);
      }

      .cls-18 {
        fill: url(#linear-gradient-40);
      }

      .cls-19 {
        fill: url(#linear-gradient-52);
      }

      .cls-20 {
        fill: url(#linear-gradient-28);
      }

      .cls-21 {
        fill: url(#linear-gradient-14);
      }

      .cls-22 {
        fill: url(#linear-gradient-36);
      }

      .cls-23 {
        fill: url(#linear-gradient-20);
      }

      .cls-24 {
        fill: url(#linear-gradient-6);
      }

      .cls-25 {
        clip-path: url(#clippath-2);
      }

      .cls-26 {
        fill: url(#linear-gradient-53);
      }

      .cls-27 {
        clip-path: url(#clippath-13);
      }

      .cls-28 {
        clip-path: url(#clippath-37);
      }

      .cls-29 {
        clip-path: url(#clippath-46);
      }

      .cls-30 {
        clip-path: url(#clippath-25);
      }

      .cls-31 {
        fill: url(#linear-gradient-60);
      }

      .cls-32 {
        clip-path: url(#clippath-15);
      }

      .cls-33 {
        clip-path: url(#clippath-6);
      }

      .cls-34 {
        fill: url(#linear-gradient-35);
      }

      .cls-35 {
        fill: url(#linear-gradient-48);
      }

      .cls-36 {
        clip-path: url(#clippath-40);
      }

      .cls-37 {
        fill: #ee2a7b;
      }

      .cls-38 {
        clip-path: url(#clippath-26);
      }

      .cls-39 {
        fill: url(#linear-gradient-32);
      }

      .cls-40 {
        fill: url(#linear-gradient-11);
      }

      .cls-41 {
        fill: url(#linear-gradient-50);
      }

      .cls-42 {
        fill: url(#linear-gradient-39);
      }

      .cls-43 {
        clip-path: url(#clippath-7);
      }

      .cls-44 {
        clip-path: url(#clippath-21);
      }

      .cls-45 {
        clip-path: url(#clippath-34);
      }

      .cls-46 {
        clip-path: url(#clippath-57);
      }

      .cls-47 {
        clip-path: url(#clippath-1);
      }

      .cls-48 {
        clip-path: url(#clippath-4);
      }

      .cls-49 {
        clip-path: url(#clippath-38);
      }

      .cls-50 {
        fill: url(#linear-gradient-10);
      }

      .cls-51 {
        clip-path: url(#clippath-36);
      }

      .cls-52 {
        clip-path: url(#clippath-27);
      }

      .cls-53 {
        fill: url(#linear-gradient-59);
      }

      .cls-54 {
        clip-path: url(#clippath-44);
      }

      .cls-55 {
        fill: url(#linear-gradient-49);
      }

      .cls-56 {
        fill: url(#linear-gradient-37);
      }

      .cls-57 {
        fill: url(#linear-gradient-16);
      }

      .cls-58 {
        clip-path: url(#clippath-12);
      }

      .cls-59 {
        fill: #767676;
      }

      .cls-60 {
        fill: url(#linear-gradient-31);
      }

      .cls-61 {
        fill: url(#linear-gradient-41);
      }

      .cls-62 {
        clip-path: url(#clippath-24);
      }

      .cls-63 {
        clip-path: url(#clippath-30);
      }

      .cls-64 {
        fill: url(#linear-gradient-21);
      }

      .cls-65 {
        clip-path: url(#clippath-22);
      }

      .cls-66 {
        fill: url(#linear-gradient-25);
      }

      .cls-67 {
        fill: url(#linear-gradient-5);
      }

      .cls-68 {
        fill: url(#linear-gradient-54);
      }

      .cls-69 {
        clip-path: url(#clippath-9);
      }

      .cls-70 {
        fill: url(#linear-gradient-45);
      }

      .cls-71 {
        clip-path: url(#clippath-52);
      }

      .cls-72 {
        fill: url(#linear-gradient-55);
      }

      .cls-73 {
        clip-path: url(#clippath);
      }

      .cls-74 {
        clip-path: url(#clippath-50);
      }

      .cls-75 {
        clip-path: url(#clippath-48);
      }

      .cls-76 {
        fill: url(#linear-gradient-34);
      }

      .cls-77 {
        clip-path: url(#clippath-39);
      }

      .cls-78 {
        fill: none;
      }

      .cls-79 {
        clip-path: url(#clippath-19);
      }

      .cls-80 {
        clip-path: url(#clippath-31);
      }

      .cls-81 {
        clip-path: url(#clippath-54);
      }

      .cls-82 {
        clip-path: url(#clippath-3);
      }

      .cls-83 {
        fill: url(#linear-gradient-7);
      }

      .cls-84 {
        clip-path: url(#clippath-43);
      }

      .cls-85 {
        clip-path: url(#clippath-8);
      }

      .cls-86 {
        fill: url(#linear-gradient-24);
      }

      .cls-87 {
        fill: url(#linear-gradient-9);
      }

      .cls-88 {
        fill: url(#linear-gradient-22);
      }

      .cls-89 {
        clip-path: url(#clippath-55);
      }

      .cls-90 {
        fill: url(#linear-gradient-42);
      }

      .cls-91 {
        clip-path: url(#clippath-29);
      }

      .cls-92 {
        clip-path: url(#clippath-18);
      }

      .cls-93 {
        clip-path: url(#clippath-14);
      }

      .cls-94 {
        fill: url(#linear-gradient-3);
      }

      .cls-95 {
        clip-path: url(#clippath-17);
      }

      .cls-96 {
        clip-path: url(#clippath-5);
      }

      .cls-97 {
        clip-path: url(#clippath-58);
      }

      .cls-98 {
        fill: url(#linear-gradient);
      }

      .cls-99 {
        fill: url(#linear-gradient-27);
      }

      .cls-100 {
        clip-path: url(#clippath-42);
      }

      .cls-101 {
        fill: url(#linear-gradient-33);
      }

      .cls-102 {
        fill: url(#linear-gradient-38);
      }

      .cls-103 {
        clip-path: url(#clippath-10);
      }

      .cls-104 {
        fill: url(#linear-gradient-29);
      }

      .cls-105 {
        clip-path: url(#clippath-23);
      }

      .cls-106 {
        fill: url(#linear-gradient-30);
      }

      .cls-107 {
        clip-path: url(#clippath-56);
      }

      .cls-108 {
        clip-path: url(#clippath-53);
      }

      .cls-109 {
        clip-path: url(#clippath-49);
      }

      .cls-110 {
        fill: url(#linear-gradient-23);
      }

      .cls-111 {
        fill: url(#linear-gradient-19);
      }

      .cls-112 {
        fill: #231f20;
      }

      .cls-113 {
        fill: url(#linear-gradient-4);
      }

      .cls-114 {
        clip-path: url(#clippath-51);
      }

      .cls-115 {
        clip-path: url(#clippath-28);
      }

      .cls-116 {
        fill: url(#linear-gradient-8);
      }

      .cls-117 {
        fill: url(#linear-gradient-44);
      }

      .cls-118 {
        fill: url(#linear-gradient-57);
      }

      .cls-119 {
        fill: url(#linear-gradient-47);
      }

      .cls-120 {
        fill: url(#linear-gradient-46);
      }

      .cls-121 {
        fill: url(#linear-gradient-12);
      }

      .cls-122 {
        clip-path: url(#clippath-35);
      }

      .cls-123 {
        fill: url(#linear-gradient-13);
      }

      .cls-124 {
        fill: url(#linear-gradient-26);
      }
    </style>
    <clipPath id="clippath">
      <path class="cls-78" d="M193.31,47.02c-7.75,1.1-6.65,13.26,1.39,12.92,8.36-.35,8.01-13.02-.16-13.01-.39,0-.8,.03-1.23,.09"/>
    </clipPath>
    <linearGradient id="linear-gradient" x1="-140.4" y1="450.35" x2="-139.4" y2="450.35" gradientTransform="translate(1980.84 5804.11) scale(12.77 -12.77)" gradientUnits="userSpaceOnUse">
      <stop offset="0" stop-color="#6b3b87"/>
      <stop offset="1" stop-color="#6d3d85"/>
    </linearGradient>
    <clipPath id="clippath-1">
      <path class="cls-78" d="M188,63.55c-8.62,.32-8.34,13.89,1.11,12.91,7.71-.8,7.04-12.92-.82-12.92-.1,0-.19,0-.29,0"/>
    </clipPath>
    <linearGradient id="linear-gradient-2" y1="450.32" y2="450.32" gradientTransform="translate(1976.29 5826.3) scale(12.78 -12.78)" xlink:href="#linear-gradient"/>
    <clipPath id="clippath-2">
      <path class="cls-78" d="M203.06,31.96c-8.06,.99-7.01,13.82,1.96,12.6,7.38-1.01,6.66-12.66-.97-12.66-.32,0-.65,.02-.99,.06"/>
    </clipPath>
    <linearGradient id="linear-gradient-3" y1="450.31" y2="450.31" gradientTransform="translate(1963.22 5701.78) scale(12.58 -12.58)" xlink:href="#linear-gradient"/>
    <clipPath id="clippath-3">
      <path class="cls-78" d="M185.31,81.31c-8.67,.14-8.38,13.92,1.4,12.55,6.98-.98,6.52-12.56-1.27-12.56-.04,0-.09,0-.13,0"/>
    </clipPath>
    <linearGradient id="linear-gradient-4" y1="450.31" y2="450.31" gradientTransform="translate(1941.97 5742.41) scale(12.56 -12.56)" xlink:href="#linear-gradient"/>
    <clipPath id="clippath-4">
      <path class="cls-78" d="M215.76,19.25c-9.12,.9-6.22,15.63,3.12,11.7,5.95-2.5,3.65-11.74-2.49-11.74-.2,0-.41,.01-.63,.03"/>
    </clipPath>
    <linearGradient id="linear-gradient-5" y1="450.23" y2="450.23" gradientTransform="translate(1912.28 5485.08) scale(12.12 -12.12)" xlink:href="#linear-gradient"/>
    <clipPath id="clippath-5">
      <path class="cls-78" d="M184.75,99.57c-7.21,1.24-5.48,13.32,2.52,11.96,7.13-1.21,6.48-12.1-1.03-12.1-.47,0-.96,.04-1.49,.13"/>
    </clipPath>
    <linearGradient id="linear-gradient-6" y1="450.31" y2="450.31" gradientTransform="translate(1874.6 5540.66) scale(12.07 -12.07)" xlink:href="#linear-gradient"/>
    <clipPath id="clippath-6">
      <path class="cls-78" d="M230.53,9.5c-5.11,.4-7.27,7.01-3.33,10.27,4.89,4.03,11.74-1.51,8.87-7.1-.93-1.81-3.12-3.18-5.19-3.18-.12,0-.24,0-.36,.01"/>
    </clipPath>
    <linearGradient id="linear-gradient-7" y1="450.25" y2="450.25" gradientTransform="translate(1851.79 5233.01) scale(11.59 -11.59)" xlink:href="#linear-gradient"/>
    <clipPath id="clippath-7">
      <path class="cls-78" d="M185.27,124.89c1.4,3.79,6.63,4.82,9.48,1.97,2.73-2.73,1.91-7.62-1.6-9.26-.87-.41-1.75-.6-2.59-.6-3.79,0-6.81,3.8-5.3,7.89"/>
    </clipPath>
    <linearGradient id="linear-gradient-8" y1="450.31" y2="450.31" gradientTransform="translate(1800.92 5306.49) scale(11.51 -11.51)" xlink:href="#linear-gradient"/>
    <clipPath id="clippath-8">
      <path class="cls-78" d="M213.11,55.57c-7.27,.8-6.31,12.43,1.66,11.42,6.71-.85,5.97-11.46-.89-11.46-.25,0-.51,.01-.77,.04"/>
    </clipPath>
    <linearGradient id="linear-gradient-9" x1="-140.4" y1="450.32" x2="-139.4" y2="450.32" gradientTransform="translate(1787.78 5128.17) scale(11.25 -11.25)" gradientUnits="userSpaceOnUse">
      <stop offset="0" stop-color="#c32e5f"/>
      <stop offset=".54" stop-color="#c32e5f"/>
      <stop offset="1" stop-color="#c32e5f"/>
    </linearGradient>
    <clipPath id="clippath-9">
      <path class="cls-78" d="M206.01,72.7c-2.65,.45-4.54,3.52-4.23,6.13,.47,4.08,5.28,6.52,8.73,4.26,4.99-3.26,2.76-10.51-3.17-10.51-.42,0-.87,.04-1.33,.12"/>
    </clipPath>
    <linearGradient id="linear-gradient-10" y1="450.3" y2="450.3" gradientTransform="translate(1818.15 5263.21) scale(11.51 -11.51)" xlink:href="#linear-gradient-9"/>
    <clipPath id="clippath-10">
      <path class="cls-78" d="M222.84,40.81c-6.93,1.17-5.52,11.89,1.67,11.13,6.7-.71,6.31-11.24-.46-11.24-.38,0-.79,.03-1.21,.11"/>
    </clipPath>
    <linearGradient id="linear-gradient-11" y1="450.33" y2="450.33" gradientTransform="translate(1765.05 5007.78) scale(11.02 -11.02)" xlink:href="#linear-gradient-9"/>
    <clipPath id="clippath-11">
      <path class="cls-78" d="M203.64,90.71c-4.9,1.02-5.51,8.98-.43,10.63,4.8,1.56,7.41-1.83,7.46-5.21,.05-2.8-1.65-5.61-5.31-5.61-.53,0-1.1,.06-1.72,.19"/>
    </clipPath>
    <linearGradient id="linear-gradient-12" y1="450.31" y2="450.31" gradientTransform="translate(1744.38 5051.08) scale(11 -11)" xlink:href="#linear-gradient-9"/>
    <clipPath id="clippath-12">
      <path class="cls-78" d="M236.73,28.7c-3.93,.3-6.39,4.83-4.2,8.19,3.1,4.76,10.59,2.17,9.85-3.65-.32-2.53-2.75-4.56-5.29-4.56-.12,0-.24,0-.36,.01"/>
    </clipPath>
    <linearGradient id="linear-gradient-13" y1="450.25" y2="450.25" gradientTransform="translate(1736.94 4862.35) scale(10.72 -10.72)" xlink:href="#linear-gradient-9"/>
    <clipPath id="clippath-13">
      <path class="cls-78" d="M247.06,3.01c-7.17,.56-6.45,11.68,1.37,10.54,6.2-.9,5.07-10.56-.92-10.56-.15,0-.3,0-.45,.02"/>
    </clipPath>
    <linearGradient id="linear-gradient-14" y1="450.31" y2="450.31" gradientTransform="translate(1713.36 4727.66) scale(10.48 -10.48)" xlink:href="#linear-gradient"/>
    <clipPath id="clippath-14">
      <path class="cls-78" d="M206.61,108.72c-6.79,.68-6.09,11.49,1.36,10.54,6.45-.82,5.46-10.57-.74-10.57-.2,0-.41,.01-.62,.03"/>
    </clipPath>
    <linearGradient id="linear-gradient-15" y1="450.32" y2="450.32" gradientTransform="translate(1668.43 4818.09) scale(10.45 -10.45)" xlink:href="#linear-gradient-9"/>
    <clipPath id="clippath-15">
      <path class="cls-78" d="M197.75,133.53c-6.73,.73-5.75,11.4,1.36,10.54,6.39-.78,5.82-10.58-.63-10.58-.24,0-.48,.01-.73,.04"/>
    </clipPath>
    <linearGradient id="linear-gradient-16" y1="450.32" y2="450.32" gradientTransform="translate(1656.21 4831.65) scale(10.42 -10.42)" xlink:href="#linear-gradient"/>
    <clipPath id="clippath-16">
      <path class="cls-78" d="M251.47,20.43c-4.71,.98-4.73,9.02,.55,9.65,3.77,.45,5.63-2.21,5.63-4.88,0-2.46-1.6-4.93-4.75-4.93-.44,0-.92,.05-1.43,.15"/>
    </clipPath>
    <linearGradient id="linear-gradient-17" y1="450.34" y2="450.34" gradientTransform="translate(1603.55 4373.37) scale(9.65 -9.65)" xlink:href="#linear-gradient-9"/>
    <clipPath id="clippath-17">
      <path class="cls-78" d="M226.09,81.26c-5.51,.88-5.35,8.98-.05,9.65,3.86,.48,5.66-2.18,5.62-4.84-.04-2.45-1.64-4.89-4.62-4.89-.3,0-.62,.02-.95,.08"/>
    </clipPath>
    <linearGradient id="linear-gradient-18" x1="-140.4" y1="450.34" x2="-139.4" y2="450.34" gradientTransform="translate(1577.11 4432.8) scale(9.65 -9.65)" gradientUnits="userSpaceOnUse">
      <stop offset="0" stop-color="#f1ae20"/>
      <stop offset=".32" stop-color="#f1ae20"/>
      <stop offset=".99" stop-color="#f5bd18"/>
      <stop offset="1" stop-color="#f5bd18"/>
    </linearGradient>
    <clipPath id="clippath-18">
      <path class="cls-78" d="M230.44,64.95c-5.49,3.9,1.11,12.31,6.25,7.58,3.51-3.23,.55-8.55-3.39-8.55-.92,0-1.9,.29-2.86,.97"/>
    </clipPath>
    <linearGradient id="linear-gradient-19" y1="450.19" y2="450.19" gradientTransform="translate(1615.74 4519.2) scale(9.88 -9.88)" xlink:href="#linear-gradient-18"/>
    <clipPath id="clippath-19">
      <path class="cls-78" d="M212.51,126.14c-6.31,.92-5.39,10.96,1.92,9.61,5.35-.99,4.31-9.67-1.12-9.67-.26,0-.52,.02-.8,.06"/>
    </clipPath>
    <linearGradient id="linear-gradient-20" y1="450.3" y2="450.3" gradientTransform="translate(1563.11 4476.78) scale(9.65 -9.65)" xlink:href="#linear-gradient-9"/>
    <clipPath id="clippath-20">
      <path class="cls-78" d="M243.51,49.37c-6.1,.9-5.28,10.46,1.68,9.36,5.43-.86,4.4-9.42-.91-9.42-.25,0-.51,.02-.77,.06"/>
    </clipPath>
    <linearGradient id="linear-gradient-21" y1="450.31" y2="450.31" gradientTransform="translate(1556.68 4279.44) scale(9.38 -9.38)" xlink:href="#linear-gradient-18"/>
    <clipPath id="clippath-21">
      <path class="cls-78" d="M261.74,1.17c-4.92,4.02,1.53,11.31,6.26,7.29C271.59,5.41,268.63,0,264.76,0c-.98,0-2.02,.35-3.02,1.17"/>
    </clipPath>
    <linearGradient id="linear-gradient-22" y1="450.21" y2="450.21" gradientTransform="translate(1613.59 4346.78) scale(9.64 -9.64)" xlink:href="#linear-gradient"/>
    <clipPath id="clippath-22">
      <path class="cls-78" d="M223.71,99.86c-4.48,1.01-4.2,9.39,1.71,9.33,6.01-.07,6.06-9.52-.12-9.52-.49,0-1.02,.06-1.59,.19"/>
    </clipPath>
    <linearGradient id="linear-gradient-23" y1="450.36" y2="450.36" gradientTransform="translate(1526.8 4294.18) scale(9.3 -9.3)" xlink:href="#linear-gradient-18"/>
    <clipPath id="clippath-23">
      <path class="cls-78" d="M208.37,148.29c-5.67,.9-4.66,10.01,1.37,9.36,5.91-.64,5.28-9.44-.42-9.44-.3,0-.62,.02-.95,.08"/>
    </clipPath>
    <linearGradient id="linear-gradient-24" y1="450.33" y2="450.33" gradientTransform="translate(1506.44 4328.75) scale(9.27 -9.27)" xlink:href="#linear-gradient"/>
    <clipPath id="clippath-24">
      <path class="cls-78" d="M257.68,38.44c-5.29,.91-4.36,9.38,1.37,8.77,5.3-.57,4.83-8.86-.43-8.86-.3,0-.61,.03-.94,.08"/>
    </clipPath>
    <linearGradient id="linear-gradient-25" y1="450.33" y2="450.33" gradientTransform="translate(1464.06 3923.7) scale(8.62 -8.62)" xlink:href="#linear-gradient-18"/>
    <clipPath id="clippath-25">
      <path class="cls-78" d="M268.9,16.01c-4.37,.91-4.14,8.14,.83,8.5,3.17,.23,4.73-2.04,4.72-4.31,0-2.17-1.44-4.33-4.25-4.33-.4,0-.84,.04-1.3,.14"/>
    </clipPath>
    <linearGradient id="linear-gradient-26" y1="450.35" y2="450.35" gradientTransform="translate(1479.91 3914.7) scale(8.65 -8.65)" xlink:href="#linear-gradient-9"/>
    <clipPath id="clippath-26">
      <path class="cls-78" d="M227.56,118.17c-4.29,.89-4.18,7.77,.24,8.47,3.51,.56,5.22-1.85,5.21-4.26-.01-2.17-1.43-4.35-4.21-4.35-.39,0-.8,.04-1.25,.14"/>
    </clipPath>
    <linearGradient id="linear-gradient-27" y1="450.33" y2="450.33" gradientTransform="translate(1431.99 3995.92) scale(8.6 -8.6)" xlink:href="#linear-gradient-18"/>
    <clipPath id="clippath-27">
      <path class="cls-78" d="M221.65,142.09c-4.78,.99-3.62,9.23,1.92,8.43,5.08-.73,4.77-8.57-.61-8.57-.41,0-.85,.04-1.31,.14"/>
    </clipPath>
    <linearGradient id="linear-gradient-28" y1="450.32" y2="450.32" gradientTransform="translate(1418.73 3995.71) scale(8.55 -8.55)" xlink:href="#linear-gradient-9"/>
    <clipPath id="clippath-28">
      <path class="cls-78" d="M281.59,.95c-4.69,.97-3.97,9.12,2.23,7.83,4.3-.89,3.62-7.95-1.12-7.95-.35,0-.72,.04-1.11,.12"/>
    </clipPath>
    <linearGradient id="linear-gradient-29" y1="450.29" y2="450.29" gradientTransform="translate(1420.89 3669.13) scale(8.14 -8.14)" xlink:href="#linear-gradient"/>
    <clipPath id="clippath-29">
      <path class="cls-78" d="M221.65,160.69c-4.14,.86-3.86,7.46,.52,7.91,3.09,.32,4.58-1.84,4.57-4-.02-2.02-1.35-4.04-3.92-4.04-.36,0-.75,.04-1.16,.13"/>
    </clipPath>
    <linearGradient id="linear-gradient-30" y1="450.34" y2="450.34" gradientTransform="translate(1345.95 3780.43) scale(8.03 -8.03)" xlink:href="#linear-gradient"/>
    <clipPath id="clippath-30">
      <path class="cls-78" d="M272.65,33.05c-3.69,3.9,2.19,9.01,5.67,5.52,2.73-2.73,.08-6.79-2.95-6.79-.92,0-1.87,.37-2.72,1.27"/>
    </clipPath>
    <linearGradient id="linear-gradient-31" y1="450.21" y2="450.21" gradientTransform="translate(1392.43 3631.42) scale(7.98 -7.98)" xlink:href="#linear-gradient-18"/>
    <clipPath id="clippath-31">
      <path class="cls-78" d="M236.13,135c-4.18,.67-4.12,6.96-.05,7.59,3.18,.49,4.67-1.65,4.62-3.79-.04-1.93-1.34-3.86-3.77-3.86-.25,0-.52,.02-.8,.07"/>
    </clipPath>
    <linearGradient id="linear-gradient-32" y1="450.33" y2="450.33" gradientTransform="translate(1312.68 3602.05) scale(7.69 -7.69)" xlink:href="#linear-gradient-18"/>
    <clipPath id="clippath-32">
      <path class="cls-78" d="M286.9,15.7c-3.9,.89-3.15,8.43,2.17,7.19,4.1-.95,3.6-7.34-.92-7.34-.39,0-.81,.05-1.26,.15"/>
    </clipPath>
    <linearGradient id="linear-gradient-33" y1="450.29" y2="450.29" gradientTransform="translate(1326.96 3363.36) scale(7.43 -7.43)" xlink:href="#linear-gradient-9"/>
    <clipPath id="clippath-33">
      <path class="cls-78" d="M235.24,155.08c-4.72,.82-3.67,8.34,1.64,7.25,4.09-.84,3.38-7.32-.85-7.32-.25,0-.51,.02-.79,.07"/>
    </clipPath>
    <linearGradient id="linear-gradient-34" y1="450.29" y2="450.29" gradientTransform="translate(1266.87 3477.53) scale(7.37 -7.37)" xlink:href="#linear-gradient-9"/>
    <clipPath id="clippath-34">
      <path class="cls-78" d="M299.01,5.37c-3.56,.82-2.82,7.14,1.33,6.67,4.24-.48,4.05-6.81-.2-6.81-.35,0-.73,.04-1.14,.14"/>
    </clipPath>
    <linearGradient id="linear-gradient-35" y1="450.33" y2="450.33" gradientTransform="translate(1237.57 3026.56) scale(6.7 -6.7)" xlink:href="#linear-gradient"/>
    <clipPath id="clippath-35">
      <path class="cls-78" d="M293.41,30.17c-4.23,.39-4.03,7.06,.52,6.75,4.47-.31,3.68-6.77-.18-6.76-.11,0-.22,0-.34,.02"/>
    </clipPath>
    <linearGradient id="linear-gradient-36" y1="450.34" y2="450.34" gradientTransform="translate(1217.11 3006.23) scale(6.6 -6.6)" xlink:href="#linear-gradient-18"/>
    <clipPath id="clippath-36">
      <path class="cls-78" d="M235.7,175.59c3.17,3.58,8.32-1.86,4.79-4.94-.61-.54-1.31-.77-2-.77-2.56,0-5.01,3.19-2.79,5.7"/>
    </clipPath>
    <linearGradient id="linear-gradient-37" y1="450.18" y2="450.18" gradientTransform="translate(1195.91 3256.14) scale(6.85 -6.85)" xlink:href="#linear-gradient"/>
    <clipPath id="clippath-37">
      <path class="cls-78" d="M248.53,149.17c-3.92,.65-3.6,7.57,1.64,6.37,3.44-.79,2.8-6.43-.96-6.43-.21,0-.44,.02-.67,.06"/>
    </clipPath>
    <linearGradient id="linear-gradient-38" y1="450.28" y2="450.28" gradientTransform="translate(1164.49 3099.03) scale(6.54 -6.54)" xlink:href="#linear-gradient-18"/>
    <clipPath id="clippath-38">
      <path class="cls-78" d="M305.22,19.54c-3.44,.66-3.03,6.37,.78,6.13,4.01-.25,3.65-6.2-.05-6.2-.23,0-.48,.02-.73,.07"/>
    </clipPath>
    <linearGradient id="linear-gradient-39" y1="450.34" y2="450.34" gradientTransform="translate(1144.49 2722.22) scale(5.99 -5.99)" xlink:href="#linear-gradient-9"/>
    <clipPath id="clippath-39">
      <path class="cls-78" d="M251.18,164.82c-4.55,.43-2.88,7.6,1.43,5.86,3.25-1.31,1.92-5.88-1.13-5.88-.1,0-.19,0-.29,.01"/>
    </clipPath>
    <linearGradient id="linear-gradient-40" y1="450.24" y2="450.24" gradientTransform="translate(1093.43 2878.21) scale(6.02 -6.02)" xlink:href="#linear-gradient-9"/>
    <clipPath id="clippath-40">
      <path class="cls-78" d="M315.55,13.05c-2.17,.49-2.43,4.18-.43,5.03,2.51,1.07,3.91-.67,3.94-2.4,.03-1.37-.79-2.74-2.58-2.74-.29,0-.6,.04-.93,.11"/>
    </clipPath>
    <linearGradient id="linear-gradient-41" y1="450.29" y2="450.29" gradientTransform="translate(1057.85 2402.48) scale(5.3 -5.3)" xlink:href="#linear-gradient"/>
    <clipPath id="clippath-41">
      <path class="cls-78" d="M254.73,176.04c-3.36,.64-2.65,6.09,1.34,5.2,2.86-.64,2.21-5.25-.75-5.25-.19,0-.38,.02-.59,.06"/>
    </clipPath>
    <linearGradient id="linear-gradient-42" y1="450.29" y2="450.29" gradientTransform="translate(999.01 2572.91) scale(5.32 -5.32)" xlink:href="#linear-gradient"/>
    <clipPath id="clippath-42">
      <path class="cls-78" d="M311.43,33.7c-3.43,.56-2.73,5.71,.78,5.26,3.28-.42,2.59-5.3-.33-5.3-.15,0-.3,.01-.46,.04"/>
    </clipPath>
    <linearGradient id="linear-gradient-43" y1="450.32" y2="450.32" gradientTransform="translate(1039.1 2377.66) scale(5.2 -5.2)" xlink:href="#linear-gradient-18"/>
    <clipPath id="clippath-43">
      <path class="cls-78" d="M263.87,159.8c-2.22,.5-2.3,4.16-.23,4.82,2.35,.75,3.58-.81,3.59-2.37,.01-1.28-.8-2.56-2.48-2.56-.27,0-.57,.03-.88,.1"/>
    </clipPath>
    <linearGradient id="linear-gradient-44" y1="450.31" y2="450.31" gradientTransform="translate(976.88 2454.88) scale(5.09 -5.09)" xlink:href="#linear-gradient-18"/>
    <clipPath id="clippath-44">
      <path class="cls-78" d="M320.79,31.59c2.43,2.16,5.36-1.43,3.32-3.47-.47-.47-1.02-.67-1.56-.67-1.89,0-3.67,2.43-1.76,4.14"/>
    </clipPath>
    <linearGradient id="linear-gradient-45" y1="450.21" y2="450.21" gradientTransform="translate(997.26 2202.39) scale(4.82 -4.82)" xlink:href="#linear-gradient-9"/>
    <clipPath id="clippath-45">
      <path class="cls-78" d="M268.01,171.02c-3.42,.75-.97,6.24,2.01,4.08,1.97-1.43,.92-4.15-1.35-4.15-.21,0-.43,.02-.66,.07"/>
    </clipPath>
    <linearGradient id="linear-gradient-46" y1="450.18" y2="450.18" gradientTransform="translate(927.51 2294.07) scale(4.71 -4.71)" xlink:href="#linear-gradient-9"/>
    <clipPath id="clippath-46">
      <path class="cls-78" d="M330.61,23.96c-2.44,.51-2.03,4.13,.48,3.99,2.73-.15,2.38-4.05,.02-4.05-.16,0-.32,.02-.49,.05"/>
    </clipPath>
    <linearGradient id="linear-gradient-47" y1="450.34" y2="450.34" gradientTransform="translate(894.83 1841.01) scale(4.03 -4.03)" xlink:href="#linear-gradient"/>
    <clipPath id="clippath-47">
      <path class="cls-78" d="M272.44,178.69c-1.78,.37-1.92,3.25-.3,3.72,1.87,.55,2.78-.63,2.76-1.82-.01-.98-.65-1.96-1.9-1.96-.18,0-.36,.02-.56,.06"/>
    </clipPath>
    <linearGradient id="linear-gradient-48" y1="450.31" y2="450.31" gradientTransform="translate(817.26 1932.76) scale(3.89 -3.89)" xlink:href="#linear-gradient"/>
    <clipPath id="clippath-48">
      <path class="cls-78" d="M328.25,41.97c-2.43,.37-2.2,4.69,1.05,3.73,2-.59,1.05-3.75-.8-3.75-.08,0-.17,0-.26,.02"/>
    </clipPath>
    <linearGradient id="linear-gradient-49" y1="450.25" y2="450.25" gradientTransform="translate(860.2 1755.46) scale(3.8 -3.8)" xlink:href="#linear-gradient-18"/>
    <clipPath id="clippath-49">
      <path class="cls-78" d="M281.59,165.7c-2.11,.63-1.38,4.16,1.05,3.73,2.18-.39,1.81-3.84-.35-3.84-.22,0-.45,.03-.7,.11"/>
    </clipPath>
    <linearGradient id="linear-gradient-50" y1="450.31" y2="450.31" gradientTransform="translate(807.15 1857.36) scale(3.75 -3.75)" xlink:href="#linear-gradient-18"/>
    <clipPath id="clippath-50">
      <path class="cls-78" d="M336.52,39.02c-1.89,.29-1.88,3.48,.23,3.48,2.25,0,2.1-3.5,.06-3.5-.09,0-.19,0-.29,.02"/>
    </clipPath>
    <linearGradient id="linear-gradient-51" y1="450.36" y2="450.36" gradientTransform="translate(791.69 1505.25) scale(3.25 -3.25)" xlink:href="#linear-gradient-9"/>
    <clipPath id="clippath-51">
      <path class="cls-78" d="M286.32,172.77c-1.96,.53-1.57,3.96,1.06,3.15,1.61-.5,1.09-3.21-.6-3.21-.14,0-.3,.02-.46,.06"/>
    </clipPath>
    <linearGradient id="linear-gradient-52" y1="450.25" y2="450.25" gradientTransform="translate(743.61 1645.18) scale(3.27 -3.27)" xlink:href="#linear-gradient-9"/>
    <clipPath id="clippath-52">
      <path class="cls-78" d="M342.71,37.54c-1.17,.34-1.22,2.68,.27,2.82,1.14,.11,1.66-.67,1.65-1.45-.01-.73-.5-1.46-1.38-1.46-.17,0-.35,.03-.55,.08"/>
    </clipPath>
    <linearGradient id="linear-gradient-53" y1="450.34" y2="450.34" gradientTransform="translate(733.05 1293.77) scale(2.79 -2.79)" xlink:href="#linear-gradient"/>
    <clipPath id="clippath-53">
      <path class="cls-78" d="M289.77,177.72c-1.48,1.17,.54,3.51,1.87,2.32,.95-.85,.22-2.68-.96-2.68-.29,0-.6,.11-.92,.36"/>
    </clipPath>
    <linearGradient id="linear-gradient-54" y1="450.21" y2="450.21" gradientTransform="translate(686.44 1452.94) scale(2.83 -2.83)" xlink:href="#linear-gradient"/>
    <clipPath id="clippath-54">
      <path class="cls-78" d="M341.66,54.66c-.55,.35-.54,2.14,.71,2.32,1.16,.17,1.55-.55,1.43-1.28-.1-.65-.61-1.3-1.33-1.3-.25,0-.52,.08-.81,.26"/>
    </clipPath>
    <linearGradient id="linear-gradient-55" y1="450.33" y2="450.33" gradientTransform="translate(693.64 1185.86) scale(2.51 -2.51)" xlink:href="#linear-gradient-18"/>
    <clipPath id="clippath-55">
      <path class="cls-78" d="M300.19,166.57c-1.27,.35-1.07,2.68,.48,2.55,1.63-.14,1.36-2.61-.09-2.61-.12,0-.26,.02-.39,.06"/>
    </clipPath>
    <linearGradient id="linear-gradient-56" y1="450.33" y2="450.33" gradientTransform="translate(639.98 1260.44) scale(2.43 -2.43)" xlink:href="#linear-gradient-18"/>
    <clipPath id="clippath-56">
      <path class="cls-78" d="M348.26,55.81c1.26,0,1.48-2.26,0-2.26s-1.26,2.26,0,2.26"/>
    </clipPath>
    <linearGradient id="linear-gradient-57" y1="450.36" y2="450.36" gradientTransform="translate(635.7 979.98) scale(2.05 -2.05)" xlink:href="#linear-gradient-9"/>
    <clipPath id="clippath-57">
      <path class="cls-78" d="M303.57,170.71c-1.16,1.82,2.63,2.64,1.98,.46-.16-.53-.72-.77-1.22-.77-.33,0-.64,.11-.76,.3"/>
    </clipPath>
    <linearGradient id="linear-gradient-58" y1="450.17" y2="450.17" gradientTransform="translate(622.63 1195.61) scale(2.27 -2.27)" xlink:href="#linear-gradient-9"/>
    <clipPath id="clippath-58">
      <path class="cls-78" d="M352.44,53.18c-1.18,.3-1.01,2.19,.51,1.7,.76-.24,.69-1.74-.25-1.74-.08,0-.17,.01-.26,.04"/>
    </clipPath>
    <linearGradient id="linear-gradient-59" y1="450.25" y2="450.25" gradientTransform="translate(604.13 863.86) scale(1.8 -1.8)" xlink:href="#linear-gradient"/>
    <clipPath id="clippath-59">
      <path class="cls-78" d="M307.56,172.77c-1.38,.37-.5,2.02,.53,1.73,.67-.19,.7-1.77-.26-1.77-.08,0-.18,.01-.28,.04"/>
    </clipPath>
    <linearGradient id="linear-gradient-60" y1="450.29" y2="450.29" gradientTransform="translate(549.06 950.56) scale(1.73 -1.73)" xlink:href="#linear-gradient"/>
  </defs>
  <g id="Layer_1-2" data-name="Layer 1">
    <g class="cls-73">
      <rect class="cls-98" x="185.57" y="46.93" width="17.5" height="13.35"/>
    </g>
    <g class="cls-47">
      <rect class="cls-1" x="179.38" y="63.55" width="17.43" height="13.89"/>
    </g>
    <g class="cls-25">
      <rect class="cls-94" x="195.01" y="31.89" width="17.4" height="13.88"/>
    </g>
    <g class="cls-82">
      <rect class="cls-113" x="176.65" y="81.31" width="17.05" height="13.93"/>
    </g>
    <g class="cls-48">
      <rect class="cls-67" x="206.65" y="19.22" width="18.18" height="15.66"/>
    </g>
    <g class="cls-96">
      <rect class="cls-24" x="177.53" y="99.44" width="16.86" height="13.45"/>
    </g>
    <g class="cls-33">
      <rect class="cls-83" x="223.25" y="9.49" width="15.69" height="14.31"/>
    </g>
    <g class="cls-43">
      <rect class="cls-116" x="183.76" y="117" width="13.73" height="12.71"/>
    </g>
    <g class="cls-85">
      <rect class="cls-87" x="205.83" y="55.53" width="15.65" height="12.48"/>
    </g>
    <g class="cls-69">
      <rect class="cls-50" x="201.47" y="72.59" width="14.02" height="12.77"/>
    </g>
    <g class="cls-103">
      <rect class="cls-40" x="215.91" y="40.71" width="15.3" height="12"/>
    </g>
    <g class="cls-5">
      <rect class="cls-121" x="198.13" y="90.52" width="12.59" height="12.38"/>
    </g>
    <g class="cls-58">
      <rect class="cls-123" x="230.34" y="28.68" width="12.77" height="12.96"/>
    </g>
    <g class="cls-27">
      <rect class="cls-21" x="239.89" y="2.99" width="14.74" height="11.69"/>
    </g>
    <g class="cls-93">
      <rect class="cls-14" x="199.82" y="108.69" width="14.6" height="11.52"/>
    </g>
    <g class="cls-32">
      <rect class="cls-57" x="191.02" y="133.49" width="14.49" height="11.44"/>
    </g>
    <g class="cls-6">
      <rect class="cls-8" x="246.75" y="20.28" width="10.91" height="10.25"/>
    </g>
    <g class="cls-95">
      <rect class="cls-16" x="220.57" y="81.18" width="11.13" height="10.21"/>
    </g>
    <g class="cls-92">
      <rect class="cls-111" x="224.95" y="63.98" width="15.25" height="13.29"/>
    </g>
    <g class="cls-79">
      <rect class="cls-23" x="206.19" y="126.08" width="13.59" height="11.02"/>
    </g>
    <g class="cls-4">
      <rect class="cls-64" x="237.41" y="49.31" width="13.21" height="10.52"/>
    </g>
    <g class="cls-44">
      <rect class="cls-88" x="256.82" width="14.77" height="12.48"/>
    </g>
    <g class="cls-65">
      <rect class="cls-110" x="219.23" y="99.67" width="12.26" height="9.58"/>
    </g>
    <g class="cls-105">
      <rect class="cls-86" x="202.7" y="148.21" width="12.95" height="10.09"/>
    </g>
    <g class="cls-62">
      <rect class="cls-66" x="252.39" y="38.36" width="11.96" height="9.47"/>
    </g>
    <g class="cls-30">
      <rect class="cls-124" x="264.52" y="15.87" width="9.93" height="8.88"/>
    </g>
    <g class="cls-38">
      <rect class="cls-99" x="223.27" y="118.04" width="9.76" height="9.16"/>
    </g>
    <g class="cls-52">
      <rect class="cls-20" x="216.87" y="141.95" width="11.79" height="9.37"/>
    </g>
    <g class="cls-115">
      <rect class="cls-104" x="276.9" y=".83" width="11.22" height="9.24"/>
    </g>
    <g class="cls-91">
      <rect class="cls-106" x="217.52" y="160.57" width="9.24" height="8.36"/>
    </g>
    <g class="cls-63">
      <rect class="cls-60" x="268.96" y="31.78" width="12.09" height="10.28"/>
    </g>
    <g class="cls-80">
      <rect class="cls-39" x="231.94" y="134.94" width="8.8" height="8.15"/>
    </g>
    <g class="cls-13">
      <rect class="cls-101" x="283.01" y="15.55" width="10.17" height="8.58"/>
    </g>
    <g class="cls-9">
      <rect class="cls-76" x="230.51" y="155.01" width="10.45" height="8.41"/>
    </g>
    <g class="cls-45">
      <rect class="cls-34" x="295.45" y="5.23" width="9.14" height="7.28"/>
    </g>
    <g class="cls-122">
      <rect class="cls-22" x="289.18" y="30.16" width="9.22" height="7.08"/>
    </g>
    <g class="cls-51">
      <rect class="cls-56" x="233.48" y="169.89" width="10.54" height="9.28"/>
    </g>
    <g class="cls-28">
      <rect class="cls-102" x="244.61" y="149.12" width="9" height="7.63"/>
    </g>
    <g class="cls-49">
      <rect class="cls-42" x="301.78" y="19.47" width="8.23" height="6.45"/>
    </g>
    <g class="cls-77">
      <rect class="cls-18" x="246.64" y="164.81" width="9.23" height="7.61"/>
    </g>
    <g class="cls-36">
      <rect class="cls-61" x="313.12" y="12.94" width="5.96" height="6.21"/>
    </g>
    <g class="cls-12">
      <rect class="cls-90" x="251.37" y="175.98" width="7.56" height="6.15"/>
    </g>
    <g class="cls-100">
      <rect class="cls-11" x="308" y="33.66" width="7.49" height="5.75"/>
    </g>
    <g class="cls-84">
      <rect class="cls-117" x="261.57" y="159.7" width="5.68" height="5.67"/>
    </g>
    <g class="cls-54">
      <rect class="cls-70" x="318.88" y="27.45" width="7.27" height="6.3"/>
    </g>
    <g class="cls-2">
      <rect class="cls-120" x="264.59" y="170.94" width="7.4" height="6.32"/>
    </g>
    <g class="cls-29">
      <rect class="cls-119" x="328.17" y="23.91" width="5.65" height="4.18"/>
    </g>
    <g class="cls-10">
      <rect class="cls-35" x="270.53" y="178.63" width="4.39" height="4.34"/>
    </g>
    <g class="cls-75">
      <rect class="cls-55" x="325.82" y="41.95" width="5.48" height="4.71"/>
    </g>
    <g class="cls-109">
      <rect class="cls-41" x="279.48" y="165.59" width="5.34" height="4.27"/>
    </g>
    <g class="cls-74">
      <rect class="cls-3" x="334.62" y="38.99" width="4.37" height="3.5"/>
    </g>
    <g class="cls-114">
      <rect class="cls-19" x="284.36" y="172.71" width="4.63" height="4.03"/>
    </g>
    <g class="cls-71">
      <rect class="cls-26" x="341.49" y="37.46" width="3.16" height="3.02"/>
    </g>
    <g class="cls-108">
      <rect class="cls-68" x="288.29" y="177.36" width="4.3" height="3.87"/>
    </g>
    <g class="cls-81">
      <rect class="cls-72" x="341.11" y="54.4" width="2.81" height="2.76"/>
    </g>
    <g class="cls-89">
      <rect class="cls-17" x="298.92" y="166.51" width="3.38" height="2.74"/>
    </g>
    <g class="cls-107">
      <rect class="cls-118" x="346.78" y="53.55" width="2.95" height="2.26"/>
    </g>
    <g class="cls-46">
      <rect class="cls-15" x="302.41" y="170.4" width="3.78" height="2.95"/>
    </g>
    <g class="cls-97">
      <rect class="cls-53" x="351.26" y="53.15" width="2.45" height="2.23"/>
    </g>
    <g class="cls-7">
      <rect class="cls-31" x="306.18" y="172.73" width="2.61" height="2.06"/>
    </g>
    <path class="cls-59" d="M310.97,72.75c-.33,.85-4.23,2.79-11.68,5.84-5.73,2.35-10.42,4.13-14.05,5.35,.29,6.83,.62,11.15,.99,12.95,1.18,5.66,3.6,8.49,7.27,8.49,1.65,0,3.99-1.21,7-3.64l-2.81,10.47c-2.57,1.95-4.89,2.92-6.94,2.92-3.93,0-6.54-2.65-7.83-7.94-3.97,15.25-11.11,24.8-21.44,28.66-3.05,1.14-5.7,1.71-7.94,1.71-3.67,0-7.06-1.54-10.17-4.63-3.11-3.09-4.66-6.47-4.66-10.14,0-9.33,1.98-16.79,5.95-22.37,3.82-5.33,10.14-9.79,18.96-13.39,2.02-.84,4.98-1.65,8.87-2.42,4.22-.88,7.22-1.63,8.98-2.26v-2.26c0-1.4-.29-4.41-.88-9.04-.63-4.85-1.1-7.68-1.43-8.49,.7-2.57,1.71-5.55,3.03-8.93,2.06,7.68,3.03,16.9,2.92,27.66,8.71-2.35,17.25-5.29,25.63-8.82l.22,.28Zm-30.97,34.11c1.1-3.49,1.62-9.57,1.54-18.24v-3.53c-11.39,3.01-19.86,6.14-25.4,9.37-9.48,5.44-14.22,12.38-14.22,20.83,0,3.82,1.01,6.96,3.03,9.42,2.13,2.65,5.07,3.97,8.82,3.97,6.47,0,12.05-2.11,16.75-6.34,4.26-3.82,7.42-8.98,9.48-15.49h0Zm21,16.7c1.1,.63,1.82,1.4,2.15,2.31-1.03,1.95-2.74,4.45-5.13,7.49l-4.9-3.36c.73-1.43,2.39-4.04,4.96-7.83,.99,.48,1.96,.94,2.92,1.38h0Zm3.36-47.06c2.24,3.2,3.36,6.91,3.36,11.13,0,1.07-.63,4.23-1.87,9.48-1.62,6.76-4.59,11.98-8.93,15.65l2.81-10.36c1.4-1.03,2.72-2.81,3.97-5.35v-1.21c0-3.82-.83-6.69-2.48-8.6-.96,.85-1.73,1.86-2.31,3.03l-.61,.06-.11-.39c.33-2.2,1.05-4.67,2.15-7.38,1.32-3.27,2.66-5.29,4.02-6.06h0Zm41.38-2.04c5.55,0,8.32,4.65,8.32,13.94,0,7.57-3.07,16.06-9.2,25.46-6.28,9.59-12.8,15.52-19.56,17.8-4.89,1.65-11.94,2.48-21.16,2.48-2.68,0-4.02-.35-4.02-1.05,0-.33,1.45-.86,4.35-1.6,4.3-1.07,7.51-1.96,9.64-2.7,6.58-2.28,12.79-5.76,18.65-10.44,5.86-4.68,10.52-9.97,13.97-15.84,2.39-4.04,3.58-7.38,3.58-10.03,0-.73-.28-1.89-.83-3.47-2.06,2.28-4.45,3.42-7.16,3.42-1.21,0-2.31-.37-3.31-1.1-.99-.73-1.49-1.69-1.49-2.87,0-2.46,1.45-6.32,4.35-11.57,.88-1.62,2.17-2.42,3.86-2.42h0Z"/>
    <path class="cls-112" d="M10.75,231.5c-3.84,0-6.59-.64-8.25-1.92-1.67-1.28-2.5-3.43-2.5-6.45v-5.99l6.67-2.42v8.1c0,.56,.2,1.03,.6,1.41,.4,.38,.86,.58,1.39,.58h11.71c.56,0,1.03-.19,1.43-.58,.4-.38,.6-.85,.6-1.41v-11.94h6.67v12.26c0,3.04-.84,5.2-2.52,6.47-1.68,1.27-4.44,1.9-8.27,1.9h-7.5Zm1.03-18.41l-4.29-3.85,4.29-3.85,2.74,2.5,2.78-2.5,4.25,3.85-4.25,3.85-2.78-2.5-2.74,2.5Zm27.22,18.37c-5.05,0-7.58-2.42-7.58-7.26v-20.83l6.67-2.38v22.66c0,.48,.09,.79,.28,.93,.18,.15,.52,.22,.99,.22h2.46v6.67h-2.82Zm2.22,0v-6.67h3.17c-.26-.87-.4-1.75-.4-2.62,0-1.75,.36-3.41,1.09-5,.73-1.59,1.81-2.92,3.23-4.01,2.33-1.75,5.56-2.62,9.68-2.62,1.45,0,3.32,.16,5.6,.48v20.44h-22.38Zm13.37-6.67h2.34v-7.5c-1.8-.05-3.25,.32-4.37,1.11-1.11,.79-1.67,1.88-1.67,3.25,0,1.16,.32,1.98,.95,2.44,.63,.46,1.55,.69,2.74,.69Zm22.42,15.99l-6.71-3.89c1.24-.56,2.22-1.01,2.94-1.37s1.51-.9,2.4-1.63c.89-.73,1.58-1.53,2.08-2.4h-.95c-3.36,0-5.97-.8-7.82-2.4-1.85-1.6-2.78-3.91-2.78-6.92,0-1.75,.36-3.42,1.09-5.02,.73-1.6,1.81-2.93,3.23-3.99,3.28-2.46,8.14-3.19,14.56-2.18v13.81h3.69v6.67h-4.29c-.45,2.01-1.26,3.75-2.42,5.22-1.16,1.47-2.84,2.84-5.04,4.11Zm-.24-15.99h1.63v-7.5c-1.67,.13-2.97,.58-3.91,1.35-.94,.77-1.41,1.77-1.41,3.02,0,1.16,.32,1.98,.95,2.44,.63,.46,1.55,.69,2.74,.69Zm11.39,6.67v-6.67h1.19c1.8,0,2.7-.81,2.7-2.42v-19.01l6.67-2.38v23.81h3.93v6.67h-5.2v-2.54c-1.32,1.69-4.02,2.54-8.1,2.54h-1.19Zm13.89,0v-6.67h4.76c.53,0,1.24-.05,2.14-.16-.42-.4-1.22-1.16-2.4-2.3-1.18-1.14-2.12-2.05-2.84-2.74v-8.41c5-1.22,8.86-1.84,11.59-1.87,4.37-.05,7.29,1.48,8.77,4.6,.56,1.14,.8,2.36,.73,3.67-.07,1.31-.33,2.57-.79,3.77-.46,1.2-1.08,2.35-1.85,3.43h4.37v6.67h-3.02c-2.94,0-5.58-.61-7.94-1.83-3.12,1.22-6.76,1.83-10.91,1.83h-2.62Zm7.78-15c2.46,2.28,4.47,4.05,6.03,5.32,.77-.71,1.31-1.46,1.63-2.24,.32-.78,.42-1.42,.32-1.92-.34-1.61-3-2-7.98-1.15h0Zm16.11,15v-6.67h3.17c-.26-.77-.4-1.64-.4-2.62,0-1.75,.35-3.42,1.05-5.02,.7-1.6,1.75-2.93,3.15-3.99,2.27-1.75,5.44-2.62,9.48-2.62,1.45,0,3.29,.16,5.52,.48v13.77h3.69v6.67h-25.68Zm13.1-6.67h2.22v-7.5c-1.67-.05-3.02,.32-4.07,1.11-1.05,.79-1.57,1.88-1.57,3.25,0,1.16,.3,1.98,.89,2.44,.6,.46,1.43,.69,2.52,.69Zm11.98,6.67v-6.67h2.46c.48,0,.81-.07,.99-.22,.18-.15,.28-.46,.28-.93v-20.28l6.67-2.38v23.21c0,4.84-2.54,7.26-7.62,7.26h-2.78Zm12.78,.79v-28.89l6.71-2.38v28.85l-6.71,2.42Zm25.68-.79c-3.25-.05-5.77-.88-7.56-2.48-1.79-1.6-2.68-3.87-2.68-6.81,0-1.75,.36-3.42,1.09-5.02,.73-1.6,1.81-2.93,3.23-3.99,3.28-2.46,8.12-3.19,14.52-2.18v13.81h4.21v6.67h-10.87v-2.46l-1.94,2.46Zm-1.75-22.02l-4.25-3.81,4.25-3.89,2.78,2.54,2.78-2.54,4.25,3.89-4.25,3.81-2.78-2.5-2.78,2.5Zm2.1,15.36h1.59v-7.5c-1.67,.11-2.96,.55-3.89,1.33-.93,.78-1.39,1.79-1.39,3.04,0,1.16,.32,1.98,.95,2.44,.63,.46,1.55,.69,2.74,.69Zm11.86,6.67v-6.67h2.3c1.8,0,2.7-.81,2.7-2.42v-9.17l6.71-2.38v13.33c0,.08,0,.19-.02,.34-.01,.15-.02,.24-.02,.3h5.24v6.67h-6.51v-2.58c-1.3,1.72-3.99,2.58-8.1,2.58h-2.3Zm5.56,9.4l-4.25-3.89,4.25-3.77,2.78,2.46,2.78-2.46,4.25,3.77-4.25,3.89-2.78-2.5-2.78,2.5Zm10.75-9.4v-6.67h1.63c1.8,0,2.7-.81,2.7-2.42v-9.17l6.67-2.38v13.33c0,.29-.01,.5-.04,.63h4.44v6.67h-5.67v-2.54c-1.35,1.69-4.05,2.54-8.1,2.54h-1.63Zm7.86-22.06l-4.25-3.81,4.25-3.89,4.21,3.89-4.21,3.81Zm6.94,22.06v-6.67h3.21c-.26-.77-.4-1.64-.4-2.62,0-1.75,.35-3.42,1.05-5.02,.7-1.6,1.75-2.93,3.15-3.99,2.27-1.75,5.44-2.62,9.48-2.62,1.45,0,3.29,.16,5.52,.48v13.77h3.69v6.67h-25.71Zm11.23-22.7l-4.29-3.81,4.29-3.89,2.74,2.5,2.78-2.5,4.25,3.89-4.25,3.81-2.78-2.5-2.74,2.5Zm1.9,16.03h2.22v-7.5c-1.69-.05-3.06,.32-4.09,1.11-1.03,.79-1.55,1.88-1.55,3.25,0,1.16,.3,1.98,.89,2.44,.6,.46,1.43,.69,2.52,.69Zm11.98,6.67v-6.67h1.63c1.8,0,2.7-.81,2.7-2.42v-9.17l6.67-2.38v13.33c0,.29-.01,.5-.04,.63h4.44v6.67h-5.67v-2.54c-1.35,1.69-4.05,2.54-8.1,2.54h-1.63Zm4.96-21.91l-4.29-3.81,4.29-3.89,2.74,2.54,2.78-2.54,4.25,3.89-4.25,3.81-2.78-2.46-2.74,2.46Zm9.84,21.91v-6.67h2.46c.48,0,.81-.07,.99-.22,.18-.15,.28-.46,.28-.93v-20.28l6.67-2.38v23.21c0,4.84-2.54,7.26-7.62,7.26h-2.78Zm19.13,0v-6.67h12.18v-3.57c0-2.01-.71-3.27-2.12-3.79-1.42-.52-3.7-.31-6.85,.62v-6.39c3.57-1.06,6.47-1.38,8.69-.95,2.22,.42,3.93,1.44,5.12,3.06,1.22,1.64,1.83,4.17,1.83,7.58v3.45h4.4v6.67h-23.25Zm22.66,0v-6.67h13.77c-.08-.21-.26-.9-.56-2.06-.05-.16-.08-.28-.08-.36-.42-1.83-1.05-3.13-1.88-3.93-.83-.79-2.06-1.18-3.67-1.15-1.9,.05-4.15,.57-6.75,1.55l2.9-7.38c1.38-.45,3.14-.7,5.28-.75,2.96,.03,5.25,.85,6.87,2.48,1.61,1.63,2.82,4.19,3.61,7.68,.4,1.4,.79,2.41,1.19,3.02,.4,.61,1.01,.91,1.83,.91h1.31v6.67h-23.81Zm12.5,9.4l-4.21-3.81,4.21-3.85,4.25,3.85-4.25,3.81Zm10.71-9.4v-6.67h2.9c.48,0,.8-.07,.97-.2,.17-.13,.26-.41,.26-.83v-10.52l6.67-2.42v13.37c0,4.84-2.51,7.26-7.54,7.26h-3.25Zm7.66-22.06l-4.25-3.81,4.25-3.89,4.21,3.89-4.21,3.81Zm35.08,22.06c-1.75,4.21-5.38,6.31-10.91,6.31-4.26,0-7.46-1.34-9.6-4.01-1.35-1.69-2.16-3.81-2.44-6.35-.28-2.54-.13-5.32,.46-8.33l6.67-2.42c-.53,2.88-.83,5.25-.91,7.1-.08,1.85,.1,3.32,.54,4.4,.44,1.09,1.07,1.84,1.9,2.26,.83,.42,1.96,.63,3.39,.63,3.47,0,5.2-1.48,5.2-4.44v-23.25l6.67-2.38v23.81h4.09v6.67h-5.04Zm4.44,0v-6.67h2.9c.48,0,.8-.07,.97-.2,.17-.13,.26-.41,.26-.83v-10.52l6.67-2.42v13.37c0,4.84-2.51,7.26-7.54,7.26h-3.25Zm5.24,9.4l-4.21-3.81,4.21-3.85,4.29,3.85-4.29,3.81Zm19.09-.08l-5.99-3.45c1.16-.58,2.1-1.09,2.82-1.53s1.49-1.05,2.32-1.83c.83-.78,1.47-1.62,1.92-2.52l-1.31,.04c-3.36,0-5.97-.8-7.82-2.4-1.85-1.6-2.78-3.91-2.78-6.92,0-1.75,.36-3.42,1.09-5.02,.73-1.6,1.81-2.93,3.23-3.99,3.28-2.46,8.12-3.19,14.52-2.18v14.17c0,3.99-.56,7.14-1.67,9.44-1.11,2.3-3.23,4.37-6.35,6.19Zm-.24-15.99h1.59v-7.5c-1.67,.11-2.96,.55-3.89,1.33-.93,.78-1.39,1.79-1.39,3.04,0,1.16,.32,1.98,.95,2.44,.63,.46,1.55,.69,2.74,.69Zm27.62,6.67c-3.25-.05-5.77-.88-7.56-2.48-1.79-1.6-2.68-3.87-2.68-6.81,0-1.75,.36-3.42,1.09-5.02,.73-1.6,1.81-2.93,3.23-3.99,3.28-2.46,8.12-3.19,14.52-2.18v13.81h4.21v6.67h-10.87v-2.46l-1.94,2.46Zm-1.75-22.02l-4.25-3.81,4.25-3.89,2.78,2.54,2.78-2.54,4.25,3.89-4.25,3.81-2.78-2.5-2.78,2.5Zm2.1,15.36h1.59v-7.5c-1.67,.11-2.96,.55-3.89,1.33-.93,.78-1.39,1.79-1.39,3.04,0,1.16,.32,1.98,.95,2.44,.63,.46,1.55,.69,2.74,.69Zm11.86,6.67v-6.67h11.11c-.4-2.33-1.32-4.29-2.78-5.87-1.46-1.59-3.65-2.88-6.59-3.89v-5.67l16.11-11.35v8.37l-7.9,5.2c1.3,.9,2.4,1.83,3.31,2.8,.91,.97,1.81,2.22,2.68,3.75,.87,1.53,1.49,3.42,1.85,5.65,.36,2.24,.44,4.8,.26,7.68h-18.06Zm23.57,9.52l-5.4-4.05c.85-.61,1.55-1.25,2.12-1.92,.57-.67,1.01-1.31,1.31-1.9,.3-.6,.53-1.38,.67-2.34,.15-.97,.23-1.79,.26-2.48,.03-.69,.04-1.71,.04-3.06v-11.9l6.67-2.5v13.97h3.65v6.67h-3.89c-.24,2.12-.76,3.93-1.57,5.44-.81,1.51-2.1,2.87-3.87,4.09Zm8.73-9.52v-6.67h3.73c.5,0,.83-.07,.99-.2,.16-.13,.24-.42,.24-.87v-9.01l6.67-2.42v11.9c0,.26-.01,.46-.04,.6h1.35c.5,0,.83-.07,.99-.2,.16-.13,.24-.42,.24-.87v-9.01l6.67-2.42v12.5h1.31c.48,0,.79-.07,.95-.2,.16-.13,.24-.42,.24-.87v-10.48l6.71-2.42v13.37c0,4.84-2.53,7.26-7.58,7.26h-2.9v-2.54c-1.24,1.69-3.33,2.54-6.27,2.54h-2.94v-2.54c-1.24,1.69-3.33,2.54-6.27,2.54h-4.09Zm15.2-21.39l-4.25-3.81,4.25-3.85,2.78,2.5,2.74-2.5,4.29,3.85-4.29,3.81-2.74-2.46-2.78,2.46Zm2.7-6.39l-3.57-3.25,3.57-3.21,3.69,3.21-3.69,3.25Z"/>
    <g>
      <path class="cls-37" d="M14.04,259.57l-4.47,15.8h-3.28L.63,254.14h3.65l3.84,16.4h-.11l4.38-16.4h3.22l4.4,16.4h-.11l3.84-16.4h3.65l-5.68,21.23h-3.26l-4.48-15.8h.09Z"/>
      <path class="cls-37" d="M34.12,275.62c-1.5,0-2.74-.44-3.72-1.32s-1.46-2.02-1.46-3.42,.5-2.46,1.5-3.27c1-.81,2.42-1.27,4.25-1.39l4.01-.25v-1.03c0-.82-.25-1.46-.75-1.91-.5-.45-1.21-.67-2.13-.67-.87,0-1.57,.19-2.08,.58s-.85,.94-.99,1.65h-3.21c.07-1,.37-1.87,.9-2.63,.53-.76,1.27-1.35,2.2-1.79,.93-.44,2.03-.65,3.3-.65,1.86,0,3.35,.47,4.47,1.41s1.68,2.19,1.68,3.77v10.67h-3.26v-2.52h.16c-.45,.84-1.12,1.52-2.01,2.02-.89,.5-1.84,.75-2.85,.75Zm.86-2.77c1.05,0,1.94-.32,2.65-.96,.71-.64,1.07-1.43,1.07-2.39v-1.05l-3.56,.22c-.91,.07-1.6,.28-2.07,.65s-.7,.86-.7,1.48,.23,1.13,.7,1.5c.47,.37,1.11,.55,1.91,.55Z"/>
      <path class="cls-37" d="M53.29,275.62c-1.13,0-2.12-.26-2.98-.78s-1.51-1.21-1.97-2.08h.17v2.6h-3.31v-21.25h3.39v8.28h-.16c.45-.87,1.1-1.56,1.95-2.08,.85-.51,1.82-.77,2.91-.77,1.94,0,3.49,.73,4.67,2.18,1.18,1.46,1.77,3.41,1.77,5.85s-.59,4.39-1.76,5.85-2.74,2.18-4.69,2.18Zm-.83-13.14c-1.14,0-2.07,.46-2.79,1.39s-1.08,2.16-1.08,3.72,.36,2.8,1.08,3.72,1.65,1.37,2.79,1.37,2.12-.45,2.8-1.35c.68-.9,1.01-2.15,1.01-3.74s-.34-2.83-1.01-3.74-1.61-1.37-2.8-1.37Z"/>
      <path class="cls-37" d="M72.22,270.59h3.22c-.27,1.52-1.01,2.75-2.23,3.67s-2.7,1.39-4.46,1.39c-2.25,0-4.03-.72-5.33-2.17-1.3-1.45-1.95-3.39-1.95-5.82,0-1.62,.29-3.04,.88-4.26,.59-1.22,1.42-2.17,2.49-2.85,1.07-.68,2.33-1.02,3.77-1.02s2.65,.32,3.69,.96c1.04,.64,1.85,1.54,2.41,2.71s.85,2.53,.85,4.09v1.22h-10.68v.04c0,1.3,.35,2.34,1.06,3.11,.71,.77,1.66,1.16,2.87,1.16,1.72,0,2.86-.74,3.39-2.23Zm-3.59-8.25c-1.05,0-1.91,.35-2.57,1.04-.66,.69-1.04,1.58-1.12,2.66h7.26c-.05-1.09-.39-1.98-1.03-2.67-.64-.69-1.48-1.03-2.54-1.03Z"/>
      <path class="cls-37" d="M78.1,275.37v-21.23h3.39v21.23h-3.39Z"/>
      <path class="cls-37" d="M94.51,275.37h-3.42v-21.23h3.13l10.75,15.44h-.1v-15.44h3.42v21.23h-3.12l-10.75-15.44h.09v15.44Z"/>
      <path class="cls-37" d="M116.32,275.62c-1.5,0-2.74-.44-3.72-1.32s-1.46-2.02-1.46-3.42,.5-2.46,1.5-3.27c1-.81,2.42-1.27,4.25-1.39l4.01-.25v-1.03c0-.82-.25-1.46-.75-1.91-.5-.45-1.21-.67-2.13-.67-.87,0-1.57,.19-2.08,.58s-.85,.94-.99,1.65h-3.21c.07-1,.37-1.87,.9-2.63,.53-.76,1.27-1.35,2.2-1.79,.93-.44,2.03-.65,3.3-.65,1.86,0,3.35,.47,4.47,1.41s1.68,2.19,1.68,3.77v10.67h-3.26v-2.52h.16c-.45,.84-1.12,1.52-2.01,2.02-.89,.5-1.84,.75-2.85,.75Zm.86-2.77c1.05,0,1.94-.32,2.65-.96,.71-.64,1.07-1.43,1.07-2.39v-1.05l-3.56,.22c-.91,.07-1.6,.28-2.07,.65s-.7,.86-.7,1.48,.23,1.13,.7,1.5c.47,.37,1.11,.55,1.91,.55Z"/>
      <path class="cls-37" d="M130.78,259.76v16.14c0,3.17-1.7,4.75-5.09,4.73-.07,0-.2,0-.4,0-.2,0-.35-.03-.47-.06v-2.72c.2,0,.4,0,.59,.01,.74,0,1.25-.14,1.54-.43,.29-.29,.43-.8,.43-1.54v-16.13h3.39Zm-1.7-1.96c-.53,0-.98-.19-1.37-.57-.38-.38-.58-.83-.58-1.36s.19-.98,.58-1.37,.84-.58,1.37-.58,1,.19,1.38,.58c.38,.38,.58,.84,.58,1.37s-.19,.98-.58,1.36c-.38,.38-.84,.57-1.38,.57Z"/>
      <path class="cls-37" d="M139.78,275.62c-1.95,0-3.51-.73-4.71-2.19-1.19-1.46-1.79-3.41-1.79-5.84s.59-4.39,1.78-5.85c1.19-1.46,2.75-2.18,4.69-2.18,1.1,0,2.08,.26,2.92,.77,.85,.51,1.48,1.19,1.91,2.02h-.17v-8.22h3.41v21.25h-3.31v-2.6h.17c-.44,.86-1.09,1.55-1.94,2.08-.85,.52-1.84,.78-2.96,.78Zm.82-13.14c-1.2,0-2.14,.46-2.82,1.37-.69,.91-1.03,2.16-1.03,3.74s.34,2.82,1.03,3.73c.68,.91,1.63,1.36,2.82,1.36s2.09-.46,2.79-1.37c.7-.91,1.05-2.15,1.05-3.72s-.35-2.8-1.05-3.72-1.63-1.38-2.79-1.38Z"/>
      <path class="cls-37" d="M160.91,275.37h-3.51v-21.23h3.51v21.23Z"/>
      <path class="cls-37" d="M164.36,275.37v-15.57h3.25v2.56h-.16c.4-.85,1.01-1.54,1.83-2.05s1.82-.77,3.01-.77c1.7,0,3.02,.52,3.97,1.57,.95,1.04,1.42,2.45,1.42,4.23v10.03h-3.41v-9.42c0-1.12-.25-1.97-.75-2.55-.5-.58-1.28-.87-2.32-.87s-1.9,.34-2.52,1.03c-.62,.69-.93,1.61-.93,2.77v9.04h-3.39Z"/>
      <path class="cls-37" d="M181.58,275.37v-12.79h-2.08v-2.75h2.08v-1.35c0-3.02,1.53-4.52,4.6-4.5,.64,0,1.27,.06,1.88,.17v2.62c-.44-.08-.87-.12-1.28-.12-.64,0-1.11,.15-1.4,.46-.29,.31-.44,.79-.44,1.44v1.28h3.06v2.75h-3.02v12.79h-3.41Z"/>
      <path class="cls-37" d="M197.09,275.65c-1.47,0-2.75-.33-3.84-.98-1.1-.65-1.95-1.58-2.56-2.79-.61-1.21-.91-2.64-.91-4.3s.31-3.09,.92-4.3c.61-1.21,1.47-2.14,2.57-2.79,1.1-.65,2.37-.98,3.83-.98s2.73,.33,3.83,.98c1.1,.65,1.95,1.58,2.57,2.79,.61,1.21,.92,2.64,.92,4.3s-.3,3.09-.91,4.3c-.61,1.21-1.46,2.14-2.56,2.79-1.1,.65-2.38,.98-3.85,.98Zm0-2.88c1.19,0,2.13-.45,2.83-1.34,.69-.9,1.04-2.18,1.04-3.84s-.35-2.95-1.05-3.84c-.7-.9-1.64-1.34-2.82-1.34s-2.12,.45-2.82,1.34c-.7,.9-1.05,2.18-1.05,3.84s.35,2.95,1.05,3.84c.7,.9,1.64,1.34,2.82,1.34Z"/>
      <path class="cls-37" d="M206.81,275.37v-15.57h3.25v2.6h-.19c.26-.87,.72-1.56,1.38-2.08s1.45-.77,2.37-.77c.46,0,.86,.05,1.21,.14v3.25c-.43-.16-.94-.25-1.54-.25-.97,0-1.72,.3-2.27,.9-.55,.6-.82,1.43-.82,2.48v9.29h-3.39Z"/>
      <path class="cls-37" d="M216.75,275.37v-15.57h3.25v2.57h-.17c.34-.83,.9-1.51,1.67-2.04,.77-.53,1.68-.79,2.72-.79s1.99,.27,2.75,.8c.76,.53,1.28,1.26,1.58,2.19h-.13c.39-.91,1.02-1.64,1.88-2.18,.86-.54,1.84-.81,2.94-.81,1.52,0,2.75,.48,3.69,1.43,.93,.95,1.4,2.21,1.4,3.76v10.64h-3.41v-9.89c0-.96-.23-1.69-.7-2.2s-1.15-.76-2.04-.76-1.61,.29-2.16,.88c-.55,.59-.82,1.35-.82,2.28v9.69h-3.33v-10.12c0-.84-.24-1.51-.73-2-.48-.49-1.15-.73-1.99-.73-.89,0-1.62,.31-2.17,.92s-.83,1.39-.83,2.34v9.59h-3.39Z"/>
      <path class="cls-37" d="M245.89,275.62c-1.5,0-2.74-.44-3.72-1.32s-1.46-2.02-1.46-3.42,.5-2.46,1.5-3.27c1-.81,2.42-1.27,4.25-1.39l4.01-.25v-1.03c0-.82-.25-1.46-.75-1.91-.5-.45-1.21-.67-2.13-.67-.87,0-1.57,.19-2.08,.58s-.85,.94-.99,1.65h-3.21c.07-1,.37-1.87,.9-2.63,.53-.76,1.27-1.35,2.2-1.79,.93-.44,2.03-.65,3.3-.65,1.86,0,3.35,.47,4.47,1.41s1.68,2.19,1.68,3.77v10.67h-3.26v-2.52h.16c-.45,.84-1.12,1.52-2.01,2.02-.89,.5-1.84,.75-2.85,.75Zm.86-2.77c1.05,0,1.94-.32,2.65-.96,.71-.64,1.07-1.43,1.07-2.39v-1.05l-3.56,.22c-.91,.07-1.6,.28-2.07,.65s-.7,.86-.7,1.48,.23,1.13,.7,1.5c.47,.37,1.11,.55,1.91,.55Z"/>
      <path class="cls-37" d="M257.76,256.19h3.41v3.61h2.88v2.77h-2.88v8.28c0,.63,.13,1.09,.4,1.36,.26,.27,.7,.41,1.3,.41,.32,0,.7-.03,1.16-.1v2.77c-.55,.11-1.17,.17-1.87,.17-1.56,0-2.69-.33-3.37-1.01-.69-.67-1.03-1.76-1.03-3.26v-8.62h-2.2v-2.77h2.2v-3.61Z"/>
      <path class="cls-37" d="M268.39,257.86c-.53,0-.98-.19-1.37-.58-.38-.38-.58-.83-.58-1.35s.19-1,.58-1.38,.84-.57,1.37-.57,1,.19,1.38,.57c.38,.38,.58,.84,.58,1.38s-.19,.97-.58,1.35-.84,.58-1.38,.58Zm-1.7,17.51v-15.57h3.39v15.57h-3.39Z"/>
      <path class="cls-37" d="M279.9,275.65c-1.47,0-2.75-.33-3.84-.98-1.1-.65-1.95-1.58-2.56-2.79-.61-1.21-.91-2.64-.91-4.3s.31-3.09,.92-4.3c.61-1.21,1.47-2.14,2.57-2.79,1.1-.65,2.37-.98,3.83-.98s2.73,.33,3.83,.98c1.1,.65,1.95,1.58,2.57,2.79,.61,1.21,.92,2.64,.92,4.3s-.3,3.09-.91,4.3c-.61,1.21-1.46,2.14-2.56,2.79-1.1,.65-2.38,.98-3.85,.98Zm0-2.88c1.19,0,2.13-.45,2.83-1.34,.69-.9,1.04-2.18,1.04-3.84s-.35-2.95-1.05-3.84c-.7-.9-1.64-1.34-2.82-1.34s-2.12,.45-2.82,1.34c-.7,.9-1.05,2.18-1.05,3.84s.35,2.95,1.05,3.84c.7,.9,1.64,1.34,2.82,1.34Z"/>
      <path class="cls-37" d="M289.62,275.37v-15.57h3.25v2.56h-.16c.4-.85,1.01-1.54,1.83-2.05s1.82-.77,3.01-.77c1.7,0,3.02,.52,3.97,1.57,.95,1.04,1.42,2.45,1.42,4.23v10.03h-3.41v-9.42c0-1.12-.25-1.97-.75-2.55-.5-.58-1.28-.87-2.32-.87s-1.9,.34-2.52,1.03c-.62,.69-.93,1.61-.93,2.77v9.04h-3.39Z"/>
      <path class="cls-37" d="M321,275.37h-3.51v-18.15h-6.35v-3.08h16.2v3.08h-6.34v18.15Z"/>
      <path class="cls-37" d="M339.64,270.59h3.22c-.27,1.52-1.01,2.75-2.23,3.67s-2.7,1.39-4.46,1.39c-2.25,0-4.03-.72-5.33-2.17-1.3-1.45-1.95-3.39-1.95-5.82,0-1.62,.29-3.04,.88-4.26,.59-1.22,1.42-2.17,2.49-2.85,1.07-.68,2.33-1.02,3.77-1.02s2.65,.32,3.69,.96c1.04,.64,1.85,1.54,2.41,2.71s.85,2.53,.85,4.09v1.22h-10.68v.04c0,1.3,.35,2.34,1.06,3.11,.71,.77,1.66,1.16,2.87,1.16,1.72,0,2.86-.74,3.39-2.23Zm-3.59-8.25c-1.05,0-1.91,.35-2.57,1.04-.66,.69-1.04,1.58-1.12,2.66h7.26c-.05-1.09-.39-1.98-1.03-2.67-.64-.69-1.48-1.03-2.54-1.03Z"/>
      <path class="cls-37" d="M358.69,265.35h-3.23c-.16-.86-.53-1.56-1.11-2.11-.57-.54-1.35-.81-2.33-.81-1.17,0-2.1,.46-2.8,1.37-.7,.91-1.04,2.18-1.04,3.79s.35,2.92,1.06,3.81c.7,.89,1.64,1.34,2.81,1.34,1.86,0,3-.94,3.41-2.83h3.26c-.2,1.76-.91,3.16-2.11,4.2-1.21,1.04-2.74,1.55-4.58,1.55-1.47,0-2.75-.33-3.84-.98-1.09-.65-1.94-1.58-2.54-2.79-.6-1.21-.91-2.64-.91-4.3,0-2.45,.66-4.41,1.99-5.87,1.33-1.46,3.08-2.19,5.27-2.19,1.32,0,2.47,.26,3.43,.78s1.72,1.22,2.28,2.1c.56,.88,.89,1.86,.99,2.94Z"/>
      <path class="cls-37" d="M361.03,275.37v-21.23h3.36v8.22h-.16c.41-.88,1.04-1.57,1.87-2.07,.83-.5,1.83-.75,3-.75,1.7,0,3.03,.53,4,1.6,.97,1.07,1.45,2.48,1.45,4.23v9.99h-3.41v-9.37c0-1.1-.26-1.96-.79-2.56-.53-.6-1.32-.91-2.37-.91-1.12,0-2,.35-2.62,1.05-.63,.7-.94,1.64-.94,2.82v8.97h-3.39Z"/>
      <path class="cls-37" d="M377.54,275.37v-15.57h3.25v2.56h-.16c.4-.85,1.01-1.54,1.83-2.05s1.82-.77,3.01-.77c1.7,0,3.02,.52,3.97,1.57,.95,1.04,1.42,2.45,1.42,4.23v10.03h-3.41v-9.42c0-1.12-.25-1.97-.75-2.55-.5-.58-1.28-.87-2.32-.87s-1.9,.34-2.52,1.03c-.62,.69-.93,1.61-.93,2.77v9.04h-3.39Z"/>
      <path class="cls-37" d="M400.5,275.65c-1.47,0-2.75-.33-3.84-.98-1.1-.65-1.95-1.58-2.56-2.79-.61-1.21-.91-2.64-.91-4.3s.31-3.09,.92-4.3c.61-1.21,1.47-2.14,2.57-2.79,1.1-.65,2.37-.98,3.83-.98s2.73,.33,3.83,.98c1.1,.65,1.95,1.58,2.57,2.79,.61,1.21,.92,2.64,.92,4.3s-.3,3.09-.91,4.3c-.61,1.21-1.46,2.14-2.56,2.79-1.1,.65-2.38,.98-3.85,.98Zm0-2.88c1.19,0,2.13-.45,2.83-1.34,.69-.9,1.04-2.18,1.04-3.84s-.35-2.95-1.05-3.84c-.7-.9-1.64-1.34-2.82-1.34s-2.12,.45-2.82,1.34c-.7,.9-1.05,2.18-1.05,3.84s.35,2.95,1.05,3.84c.7,.9,1.64,1.34,2.82,1.34Z"/>
      <path class="cls-37" d="M410.33,275.37v-21.23h3.39v21.23h-3.39Z"/>
      <path class="cls-37" d="M423.56,275.65c-1.47,0-2.75-.33-3.84-.98-1.1-.65-1.95-1.58-2.56-2.79-.61-1.21-.91-2.64-.91-4.3s.31-3.09,.92-4.3c.61-1.21,1.47-2.14,2.57-2.79,1.1-.65,2.37-.98,3.83-.98s2.73,.33,3.83,.98c1.1,.65,1.95,1.58,2.57,2.79,.61,1.21,.92,2.64,.92,4.3s-.3,3.09-.91,4.3c-.61,1.21-1.46,2.14-2.56,2.79-1.1,.65-2.38,.98-3.85,.98Zm0-2.88c1.19,0,2.13-.45,2.83-1.34,.69-.9,1.04-2.18,1.04-3.84s-.35-2.95-1.05-3.84c-.7-.9-1.64-1.34-2.82-1.34s-2.12,.45-2.82,1.34c-.7,.9-1.05,2.18-1.05,3.84s.35,2.95,1.05,3.84c.7,.9,1.64,1.34,2.82,1.34Z"/>
      <path class="cls-37" d="M439.89,281.06c-1.8,0-3.32-.44-4.55-1.33-1.23-.89-1.97-2.06-2.22-3.51h3.39c.24,.67,.67,1.19,1.28,1.56,.61,.37,1.35,.55,2.21,.55,1.19,0,2.11-.3,2.75-.91,.65-.6,.97-1.41,.97-2.43v-2.37h.17c-.42,.82-1.06,1.49-1.93,1.99-.86,.5-1.84,.75-2.95,.75-1.94,0-3.49-.71-4.67-2.14s-1.76-3.34-1.76-5.75,.59-4.37,1.77-5.81,2.75-2.16,4.73-2.16c1.09,0,2.07,.26,2.93,.78,.86,.52,1.52,1.21,1.98,2.08h-.17v-2.6h3.31v15.14c0,1.85-.66,3.34-1.98,4.47s-3.08,1.7-5.26,1.7Zm-.03-8.58c1.18,0,2.12-.45,2.83-1.34,.7-.89,1.06-2.11,1.06-3.65s-.35-2.77-1.06-3.69c-.7-.92-1.65-1.37-2.83-1.37s-2.08,.45-2.77,1.35c-.69,.9-1.03,2.14-1.03,3.71s.34,2.8,1.03,3.67c.68,.88,1.61,1.32,2.77,1.32Z"/>
      <path class="cls-37" d="M451.89,281c-.25,0-.72-.03-1.41-.1v-2.85c.2,.05,.41,.08,.63,.09s.39,.01,.52,.01c.7,0,1.24-.16,1.63-.47,.39-.31,.69-.84,.91-1.59,.06-.19,.1-.35,.14-.47,.03-.12,.06-.22,.09-.31,.03-.09,.04-.12,.04-.12l-5.52-15.45h3.68l3.84,12.42h-.17l3.84-12.42h3.58l-5.74,16.26c-.63,1.84-1.4,3.13-2.31,3.87-.91,.74-2.16,1.11-3.76,1.11Z"/>
      <path class="cls-37" d="M484.82,265.35h-3.23c-.16-.86-.53-1.56-1.11-2.11-.57-.54-1.35-.81-2.33-.81-1.17,0-2.1,.46-2.8,1.37-.7,.91-1.04,2.18-1.04,3.79s.35,2.92,1.06,3.81c.7,.89,1.64,1.34,2.81,1.34,1.86,0,3-.94,3.41-2.83h3.26c-.2,1.76-.91,3.16-2.11,4.2-1.21,1.04-2.74,1.55-4.58,1.55-1.47,0-2.75-.33-3.84-.98-1.09-.65-1.94-1.58-2.54-2.79-.6-1.21-.91-2.64-.91-4.3,0-2.45,.66-4.41,1.99-5.87,1.33-1.46,3.08-2.19,5.27-2.19,1.32,0,2.47,.26,3.43,.78s1.72,1.22,2.28,2.1c.56,.88,.89,1.86,.99,2.94Z"/>
      <path class="cls-37" d="M493.69,275.65c-1.47,0-2.75-.33-3.84-.98-1.1-.65-1.95-1.58-2.56-2.79-.61-1.21-.91-2.64-.91-4.3s.31-3.09,.92-4.3c.61-1.21,1.47-2.14,2.57-2.79,1.1-.65,2.37-.98,3.83-.98s2.73,.33,3.83,.98c1.1,.65,1.95,1.58,2.57,2.79,.61,1.21,.92,2.64,.92,4.3s-.3,3.09-.91,4.3c-.61,1.21-1.46,2.14-2.56,2.79-1.1,.65-2.38,.98-3.85,.98Zm0-2.88c1.19,0,2.13-.45,2.83-1.34,.69-.9,1.04-2.18,1.04-3.84s-.35-2.95-1.05-3.84c-.7-.9-1.64-1.34-2.82-1.34s-2.12,.45-2.82,1.34c-.7,.9-1.05,2.18-1.05,3.84s.35,2.95,1.05,3.84c.7,.9,1.64,1.34,2.82,1.34Z"/>
      <path class="cls-37" d="M504.31,271.17h4.41v4.41h-4.41v-4.41Z"/>
    </g>
  </g>
</svg>